<?xml version="1.0" encoding="utf-8"?>
<!-- Generator: Adobe Illustrator 19.0.1, SVG Export Plug-In . SVG Version: 6.00 Build 0)  -->
<svg version="1.1" xmlns="http://www.w3.org/2000/svg" xmlns:xlink="http://www.w3.org/1999/xlink" x="0px" y="0px"
	 viewBox="0 0 32 32" enable-background="new 0 0 32 32" xml:space="preserve">
<g id="Layer_6" display="none">
</g>
<g id="Flat" display="none">
	<g display="inline">
		<path fill="#E02F2F" d="M16,0C7.163,0,0,7.163,0,16c0,8.836,7.163,16,16,16s16-7.164,16-16C32,7.163,24.837,0,16,0z"/>
		<path fill="none" stroke="#FF6666" stroke-width="0.5" stroke-miterlimit="10" d="M16,1.359C7.914,1.359,1.359,7.914,1.359,16
			c0,8.086,6.555,14.641,14.641,14.641S30.641,24.086,30.641,16C30.641,7.914,24.086,1.359,16,1.359z"/>
	</g>
	<path display="inline" fill="#FFFFFF" d="M13.69,24.903h3.679v-8.904h2.454l0.325-3.068h-2.779l0.004-1.536
		c0-0.8,0.076-1.229,1.224-1.229h1.534V7.097h-2.455c-2.949,0-3.986,1.489-3.986,3.992v1.842h-1.838v3.069h1.838V24.903z"/>
</g>
<g id="Flat_copy">
	<g>
		<g>
			<path fill="#FFFFFF" d="M16,31.625c-8.616,0-15.625-7.01-15.625-15.625C0.375,7.384,7.384,0.375,16,0.375
				c8.615,0,15.625,7.009,15.625,15.625C31.625,24.615,24.615,31.625,16,31.625z"/>
			<path fill="#E5E5E5" d="M16,0.75c8.409,0,15.25,6.841,15.25,15.25S24.409,31.25,16,31.25S0.75,24.409,0.75,16S7.591,0.75,16,0.75
				 M16,0C7.163,0,0,7.163,0,16c0,8.836,7.163,16,16,16s16-7.164,16-16C32,7.163,24.837,0,16,0L16,0z"/>
		</g>
	</g>
	<path fill="#333333" d="M13.69,24.903h3.679v-8.904h2.454l0.325-3.068h-2.779l0.004-1.536c0-0.8,0.076-1.229,1.224-1.229h1.534
		V7.097h-2.455c-2.949,0-3.986,1.489-3.986,3.992v1.842h-1.838v3.069h1.838V24.903z"/>
</g>
</svg>
