<?xml version="1.0" encoding="utf-8"?>
<!-- Generator: Adobe Illustrator 19.0.1, SVG Export Plug-In . SVG Version: 6.00 Build 0)  -->
<svg version="1.1" xmlns="http://www.w3.org/2000/svg" xmlns:xlink="http://www.w3.org/1999/xlink" x="0px" y="0px"
	 viewBox="0 0 32 32" enable-background="new 0 0 32 32" xml:space="preserve">
<g id="Layer_6" display="none">
</g>
<g id="Flat" display="none">
	<g display="inline">
		<path fill="#E02F2F" d="M15.995,0c-8.837,0-16,7.163-16,16c0,8.836,7.163,16,16,16s16-7.164,16-16C31.995,7.163,24.831,0,15.995,0
			z"/>
		<path fill="none" stroke="#FF6666" stroke-width="0.5" stroke-miterlimit="10" d="M15.995,1.359C7.909,1.359,1.353,7.914,1.353,16
			c0,8.086,6.555,14.641,14.641,14.641S30.636,24.086,30.636,16C30.636,7.914,24.081,1.359,15.995,1.359z"/>
	</g>
	<path display="inline" fill="#FFFFFF" d="M24.002,12.466c0,4.658-2.59,8.139-6.407,8.139c-1.283,0-2.488-0.693-2.901-1.481
		c0,0-0.69,2.736-0.835,3.264c-0.514,1.866-2.027,3.733-2.144,3.886c-0.082,0.106-0.263,0.073-0.282-0.068
		c-0.033-0.238-0.418-2.592,0.036-4.513c0.228-0.964,1.527-6.471,1.527-6.471s-0.379-0.758-0.379-1.879
		c0-1.76,1.02-3.074,2.29-3.074c1.08,0,1.601,0.81,1.601,1.782c0,1.086-0.691,2.71-1.048,4.214c-0.298,1.26,0.632,2.288,1.874,2.288
		c2.25,0,3.765-2.89,3.765-6.314c0-2.602-1.752-4.551-4.941-4.551c-3.601,0-5.846,2.686-5.846,5.687
		c0,1.035,0.306,1.765,0.784,2.329c0.219,0.26,0.25,0.364,0.17,0.662c-0.058,0.219-0.187,0.744-0.243,0.953
		c-0.079,0.301-0.323,0.408-0.594,0.297c-1.659-0.677-2.432-2.495-2.432-4.537c0-3.373,2.845-7.418,8.487-7.418
		C21.019,5.663,24.002,8.943,24.002,12.466z"/>
</g>
<g id="Flat_copy">
	<g>
		<g>
			<path fill="#FFFFFF" d="M15.995,31.625C7.38,31.625,0.37,24.615,0.37,16S7.38,0.375,15.995,0.375S31.62,7.385,31.62,16
				S24.61,31.625,15.995,31.625z"/>
			<path fill="#E5E5E5" d="M15.995,0.75c8.409,0,15.25,6.841,15.25,15.25s-6.841,15.25-15.25,15.25S0.745,24.409,0.745,16
				S7.586,0.75,15.995,0.75 M15.995,0c-8.837,0-16,7.163-16,16c0,8.836,7.163,16,16,16s16-7.164,16-16
				C31.995,7.163,24.831,0,15.995,0L15.995,0z"/>
		</g>
	</g>
	<path fill="#333333" d="M24.002,12.466c0,4.658-2.59,8.139-6.407,8.139c-1.283,0-2.488-0.693-2.901-1.481
		c0,0-0.69,2.736-0.835,3.264c-0.514,1.866-2.027,3.733-2.144,3.886c-0.082,0.106-0.263,0.073-0.282-0.068
		c-0.033-0.238-0.418-2.592,0.036-4.513c0.228-0.964,1.527-6.471,1.527-6.471s-0.379-0.758-0.379-1.879
		c0-1.76,1.02-3.074,2.29-3.074c1.08,0,1.601,0.81,1.601,1.782c0,1.086-0.691,2.71-1.048,4.214c-0.298,1.26,0.632,2.288,1.874,2.288
		c2.25,0,3.765-2.89,3.765-6.314c0-2.602-1.752-4.551-4.941-4.551c-3.601,0-5.846,2.686-5.846,5.687
		c0,1.035,0.306,1.765,0.784,2.329c0.219,0.26,0.25,0.364,0.17,0.662c-0.058,0.219-0.187,0.744-0.243,0.953
		c-0.079,0.301-0.323,0.408-0.594,0.297c-1.659-0.677-2.432-2.495-2.432-4.537c0-3.373,2.845-7.418,8.487-7.418
		C21.019,5.663,24.002,8.943,24.002,12.466z"/>
</g>
</svg>
